<mxfile host="app.diagrams.net" modified="2023-12-01T14:08:57.683Z" agent="Mozilla/5.0 (Windows NT 10.0; Win64; x64) AppleWebKit/537.36 (KHTML, like Gecko) Chrome/119.0.0.0 Safari/537.36" version="22.1.5" etag="yp5IUisf-ioLVUnYVKdr" type="github">
  <diagram name="Page-1" id="cScleMj-TSp0PI5FVVU1">
    <mxGraphModel>
      <root>
        <mxCell id="0" />
        <mxCell id="1" parent="0" />
      </root>
    </mxGraphModel>
  </diagram>
</mxfile>
